<svg width="26" height="26" viewBox="0 0 26 26" fill="none" xmlns="http://www.w3.org/2000/svg">
<g clip-path="url(#clip0_12_514)">
<path fill-rule="evenodd" clip-rule="evenodd" d="M17.875 24.375C19.5989 24.375 21.2522 23.6902 22.4712 22.4712C23.6902 21.2522 24.375 19.5989 24.375 17.875C24.375 16.1511 23.6902 14.4978 22.4712 13.2788C21.2522 12.0598 19.5989 11.375 17.875 11.375C16.1511 11.375 14.4978 12.0598 13.2788 13.2788C12.0598 14.4978 11.375 16.1511 11.375 17.875C11.375 19.5989 12.0598 21.2522 13.2788 22.4712C14.4978 23.6902 16.1511 24.375 17.875 24.375ZM26 17.875C26 20.0299 25.144 22.0965 23.6202 23.6202C22.0965 25.144 20.0299 26 17.875 26C15.7201 26 13.6535 25.144 12.1298 23.6202C10.606 22.0965 9.75 20.0299 9.75 17.875C9.75 15.7201 10.606 13.6535 12.1298 12.1298C13.6535 10.606 15.7201 9.75 17.875 9.75C20.0299 9.75 22.0965 10.606 23.6202 12.1298C25.144 13.6535 26 15.7201 26 17.875Z" fill="white"/>
<path d="M15.3368 19.409C15.4131 20.3775 16.1785 21.1315 17.5516 21.2225V21.9375H18.161V21.2176C19.5829 21.1185 20.4133 20.358 20.4133 19.2563C20.4133 18.252 19.7795 17.7352 18.642 17.4688L18.161 17.355V15.405C18.772 15.4749 19.1588 15.808 19.2514 16.2695H20.3206C20.2443 15.3351 19.4431 14.6055 18.161 14.5259V13.8125H17.5516V14.5437C16.3378 14.6624 15.5123 15.392 15.5123 16.4255C15.5123 17.3387 16.1265 17.9205 17.1486 18.1577L17.5516 18.2569V20.3239C16.9276 20.2296 16.5133 19.8851 16.4206 19.409H15.3368ZM17.5468 17.2088C16.9471 17.0706 16.6221 16.7862 16.6221 16.3605C16.6221 15.8827 16.9731 15.5252 17.5516 15.4212V17.2088H17.5468ZM18.2488 18.421C18.9784 18.59 19.3131 18.863 19.3131 19.3456C19.3131 19.8965 18.8955 20.2735 18.161 20.3434V18.4015L18.2488 18.421Z" fill="white"/>
<path d="M1.625 0C1.19402 0 0.780698 0.171205 0.475951 0.475951C0.171205 0.780698 0 1.19402 0 1.625L0 14.625C0 15.056 0.171205 15.4693 0.475951 15.774C0.780698 16.0788 1.19402 16.25 1.625 16.25H8.25988C8.35413 15.691 8.4955 15.1482 8.67912 14.625H4.875C4.875 13.763 4.53259 12.9364 3.9231 12.3269C3.3136 11.7174 2.48695 11.375 1.625 11.375V4.875C2.48695 4.875 3.3136 4.53259 3.9231 3.9231C4.53259 3.3136 4.875 2.48695 4.875 1.625H21.125C21.125 2.48695 21.4674 3.3136 22.0769 3.9231C22.6864 4.53259 23.513 4.875 24.375 4.875V10.608C24.9925 11.1605 25.5401 11.791 26 12.4833V1.625C26 1.19402 25.8288 0.780698 25.524 0.475951C25.2193 0.171205 24.806 0 24.375 0L1.625 0Z" fill="white"/>
<path d="M16.2468 8.25988L16.25 8.125C16.2497 7.56534 16.1048 7.01525 15.8295 6.528C15.5541 6.04075 15.1576 5.63287 14.6784 5.34385C14.1991 5.05483 13.6533 4.89446 13.0939 4.87829C12.5345 4.86213 11.9803 4.99069 11.4852 5.25155C10.99 5.51241 10.5706 5.89671 10.2676 6.36724C9.96458 6.83777 9.7882 7.37858 9.75554 7.93729C9.72288 8.496 9.83505 9.05368 10.0812 9.55631C10.3273 10.0589 10.6991 10.4895 11.1605 10.8063C12.5641 9.46932 14.3354 8.58256 16.2468 8.25988Z" fill="white"/>
</g>
<defs>
<clipPath id="clip0_12_514">
<rect width="26" height="26" fill="white"/>
</clipPath>
</defs>
</svg>
