<svg width="82" height="60" viewBox="0 0 82 60" fill="none" xmlns="http://www.w3.org/2000/svg">
<rect width="82" height="60" rx="10" fill="#1C1C1C"/>
<path d="M14.123 36.8906H15.0361L17.3652 42.6865L19.6895 36.8906H20.6074L17.7168 44H17.0039L14.123 36.8906ZM13.8252 36.8906H14.6309L14.7627 41.2266V44H13.8252V36.8906ZM20.0947 36.8906H20.9004V44H19.9629V41.2266L20.0947 36.8906ZM21.8597 41.417V41.3047C21.8597 40.9238 21.915 40.5706 22.0257 40.2451C22.1364 39.9163 22.2959 39.6315 22.5042 39.3906C22.7126 39.1465 22.9648 38.9577 23.2611 38.8242C23.5573 38.6875 23.8893 38.6191 24.2571 38.6191C24.6282 38.6191 24.9619 38.6875 25.2581 38.8242C25.5576 38.9577 25.8115 39.1465 26.0198 39.3906C26.2314 39.6315 26.3926 39.9163 26.5032 40.2451C26.6139 40.5706 26.6693 40.9238 26.6693 41.3047V41.417C26.6693 41.7979 26.6139 42.151 26.5032 42.4766C26.3926 42.8021 26.2314 43.0869 26.0198 43.3311C25.8115 43.5719 25.5592 43.7607 25.263 43.8975C24.97 44.0309 24.638 44.0977 24.2669 44.0977C23.8958 44.0977 23.5622 44.0309 23.2659 43.8975C22.9697 43.7607 22.7158 43.5719 22.5042 43.3311C22.2959 43.0869 22.1364 42.8021 22.0257 42.4766C21.915 42.151 21.8597 41.7979 21.8597 41.417ZM22.763 41.3047V41.417C22.763 41.6807 22.7939 41.9297 22.8558 42.1641C22.9176 42.3952 23.0104 42.6003 23.1341 42.7793C23.2611 42.9583 23.4189 43.0999 23.6077 43.2041C23.7965 43.305 24.0163 43.3555 24.2669 43.3555C24.5143 43.3555 24.7308 43.305 24.9163 43.2041C25.1051 43.0999 25.2614 42.9583 25.3851 42.7793C25.5088 42.6003 25.6015 42.3952 25.6634 42.1641C25.7285 41.9297 25.7611 41.6807 25.7611 41.417V41.3047C25.7611 41.0443 25.7285 40.7985 25.6634 40.5674C25.6015 40.333 25.5071 40.1263 25.3802 39.9473C25.2565 39.765 25.1002 39.6217 24.9114 39.5176C24.7259 39.4134 24.5078 39.3613 24.2571 39.3613C24.0098 39.3613 23.7917 39.4134 23.6029 39.5176C23.4173 39.6217 23.2611 39.765 23.1341 39.9473C23.0104 40.1263 22.9176 40.333 22.8558 40.5674C22.7939 40.7985 22.763 41.0443 22.763 41.3047ZM28.3854 39.8447V44H27.4821V38.7168H28.3366L28.3854 39.8447ZM28.1705 41.1582L27.7946 41.1436C27.7978 40.7822 27.8515 40.4486 27.9557 40.1426C28.0599 39.8333 28.2064 39.5648 28.3952 39.3369C28.584 39.109 28.8086 38.9333 29.069 38.8096C29.3327 38.6826 29.624 38.6191 29.943 38.6191C30.2034 38.6191 30.4378 38.6549 30.6461 38.7266C30.8545 38.7949 31.0319 38.9056 31.1784 39.0586C31.3281 39.2116 31.442 39.4102 31.5202 39.6543C31.5983 39.8952 31.6373 40.1898 31.6373 40.5381V44H30.7291V40.5283C30.7291 40.2516 30.6885 40.0303 30.6071 39.8643C30.5257 39.695 30.4069 39.5729 30.2506 39.498C30.0944 39.4199 29.9023 39.3809 29.6745 39.3809C29.4498 39.3809 29.2448 39.4281 29.0592 39.5225C28.8769 39.6169 28.719 39.7471 28.5856 39.9131C28.4554 40.0791 28.3528 40.2695 28.278 40.4844C28.2064 40.696 28.1705 40.9206 28.1705 41.1582ZM34.8818 44.0977C34.514 44.0977 34.1803 44.0358 33.8808 43.9121C33.5846 43.7852 33.3291 43.6077 33.1142 43.3799C32.9026 43.152 32.7399 42.8818 32.6259 42.5693C32.512 42.2568 32.455 41.915 32.455 41.5439V41.3389C32.455 40.9092 32.5185 40.5267 32.6455 40.1914C32.7724 39.8529 32.9449 39.5664 33.163 39.332C33.3811 39.0977 33.6285 38.9202 33.9052 38.7998C34.1819 38.6794 34.4684 38.6191 34.7646 38.6191C35.1422 38.6191 35.4677 38.6842 35.7412 38.8145C36.0179 38.9447 36.2441 39.127 36.4199 39.3613C36.5957 39.5924 36.7259 39.8659 36.8105 40.1816C36.8951 40.4941 36.9375 40.8359 36.9375 41.207V41.6123H32.9921V40.875H36.0341V40.8066C36.0211 40.5723 35.9723 40.3444 35.8877 40.123C35.8063 39.9017 35.6761 39.7194 35.497 39.5762C35.318 39.4329 35.0739 39.3613 34.7646 39.3613C34.5595 39.3613 34.3707 39.4053 34.1982 39.4932C34.0257 39.5778 33.8776 39.7048 33.7539 39.874C33.6302 40.0433 33.5341 40.25 33.4658 40.4941C33.3974 40.7383 33.3632 41.0199 33.3632 41.3389V41.5439C33.3632 41.7946 33.3974 42.0306 33.4658 42.252C33.5374 42.4701 33.6399 42.6621 33.7734 42.8281C33.9101 42.9941 34.0745 43.1243 34.2666 43.2188C34.4619 43.3132 34.6832 43.3604 34.9306 43.3604C35.2496 43.3604 35.5198 43.2952 35.7412 43.165C35.9625 43.0348 36.1562 42.8607 36.3222 42.6426L36.8691 43.0771C36.7552 43.2497 36.6103 43.4141 36.4345 43.5703C36.2588 43.7266 36.0423 43.8535 35.7851 43.9512C35.5312 44.0488 35.2301 44.0977 34.8818 44.0977ZM39.0882 43.4531L40.5579 38.7168H41.5247L39.4055 44.8154C39.3567 44.9456 39.2916 45.0856 39.2102 45.2354C39.1321 45.3883 39.0312 45.5332 38.9075 45.6699C38.7838 45.8066 38.6341 45.9173 38.4583 46.002C38.2858 46.0898 38.079 46.1338 37.8382 46.1338C37.7665 46.1338 37.6754 46.124 37.5647 46.1045C37.454 46.085 37.3759 46.0687 37.3304 46.0557L37.3255 45.3232C37.3515 45.3265 37.3922 45.3298 37.4475 45.333C37.5061 45.3395 37.5468 45.3428 37.5696 45.3428C37.7747 45.3428 37.9488 45.3151 38.0921 45.2598C38.2353 45.2077 38.3557 45.1182 38.4534 44.9912C38.5543 44.8675 38.6406 44.6966 38.7122 44.4785L39.0882 43.4531ZM38.0091 38.7168L39.3811 42.8184L39.6155 43.7705L38.9661 44.1025L37.0227 38.7168H38.0091ZM16.4473 51.2119H14.5479V50.4453H16.4473C16.8151 50.4453 17.113 50.3867 17.3408 50.2695C17.5687 50.1523 17.7347 49.9896 17.8389 49.7812C17.9463 49.5729 18 49.3353 18 49.0684C18 48.8242 17.9463 48.5947 17.8389 48.3799C17.7347 48.165 17.5687 47.9925 17.3408 47.8623C17.113 47.7288 16.8151 47.6621 16.4473 47.6621H14.7676V54H13.8252V46.8906H16.4473C16.9844 46.8906 17.4385 46.9834 17.8096 47.1689C18.1807 47.3545 18.4622 47.6117 18.6543 47.9404C18.8464 48.266 18.9424 48.6387 18.9424 49.0586C18.9424 49.5143 18.8464 49.9033 18.6543 50.2256C18.4622 50.5479 18.1807 50.7936 17.8096 50.9629C17.4385 51.1289 16.9844 51.2119 16.4473 51.2119ZM22.7337 53.0967V50.377C22.7337 50.1686 22.6914 49.988 22.6068 49.835C22.5254 49.6787 22.4017 49.5583 22.2357 49.4736C22.0696 49.389 21.8646 49.3467 21.6204 49.3467C21.3926 49.3467 21.1924 49.3857 21.0198 49.4639C20.8506 49.542 20.7171 49.6445 20.6195 49.7715C20.5251 49.8984 20.4779 50.0352 20.4779 50.1816H19.5745C19.5745 49.9928 19.6234 49.8057 19.721 49.6201C19.8187 49.4346 19.9586 49.2669 20.1409 49.1172C20.3265 48.9642 20.5478 48.8438 20.805 48.7559C21.0654 48.6647 21.3551 48.6191 21.6741 48.6191C22.0583 48.6191 22.3968 48.6842 22.6898 48.8145C22.986 48.9447 23.2171 49.1416 23.3831 49.4053C23.5524 49.6657 23.637 49.9928 23.637 50.3867V52.8477C23.637 53.0234 23.6517 53.2106 23.681 53.4092C23.7135 53.6077 23.7607 53.7786 23.8226 53.9219V54H22.8802C22.8346 53.8958 22.7988 53.7575 22.7728 53.585C22.7467 53.4092 22.7337 53.2464 22.7337 53.0967ZM22.89 50.7969L22.8997 51.4316H21.9866C21.7295 51.4316 21.5 51.4528 21.2982 51.4951C21.0963 51.5342 20.9271 51.5944 20.7904 51.6758C20.6536 51.7572 20.5495 51.8597 20.4779 51.9834C20.4062 52.1038 20.3704 52.2454 20.3704 52.4082C20.3704 52.5742 20.4079 52.7256 20.4827 52.8623C20.5576 52.999 20.6699 53.1081 20.8196 53.1895C20.9726 53.2676 21.1598 53.3066 21.3812 53.3066C21.6579 53.3066 21.902 53.248 22.1136 53.1309C22.3252 53.0137 22.4928 52.8704 22.6165 52.7012C22.7435 52.5319 22.8118 52.3675 22.8216 52.208L23.2073 52.6426C23.1846 52.7793 23.1227 52.9307 23.0218 53.0967C22.9209 53.2627 22.7858 53.4222 22.6165 53.5752C22.4505 53.7249 22.2519 53.8503 22.0208 53.9512C21.793 54.0488 21.5358 54.0977 21.2493 54.0977C20.8913 54.0977 20.5771 54.0277 20.307 53.8877C20.04 53.7477 19.8317 53.5605 19.682 53.3262C19.5355 53.0885 19.4622 52.8232 19.4622 52.5303C19.4622 52.2471 19.5176 51.998 19.6282 51.7832C19.7389 51.5651 19.8984 51.3844 20.1068 51.2412C20.3151 51.0947 20.5657 50.984 20.8587 50.9092C21.1517 50.8343 21.4788 50.7969 21.8402 50.7969H22.89ZM26.1442 53.4531L27.6139 48.7168H28.5807L26.4616 54.8154C26.4127 54.9456 26.3476 55.0856 26.2662 55.2354C26.1881 55.3883 26.0872 55.5332 25.9635 55.6699C25.8398 55.8066 25.6901 55.9173 25.5143 56.002C25.3418 56.0898 25.1351 56.1338 24.8942 56.1338C24.8226 56.1338 24.7314 56.124 24.6207 56.1045C24.5101 56.085 24.4319 56.0687 24.3864 56.0557L24.3815 55.3232C24.4075 55.3265 24.4482 55.3298 24.5036 55.333C24.5621 55.3395 24.6028 55.3428 24.6256 55.3428C24.8307 55.3428 25.0049 55.3151 25.1481 55.2598C25.2913 55.2077 25.4118 55.1182 25.5094 54.9912C25.6103 54.8675 25.6966 54.6966 25.7682 54.4785L26.1442 53.4531ZM25.0651 48.7168L26.4371 52.8184L26.6715 53.7705L26.0221 54.1025L24.0787 48.7168H25.0651ZM29.9746 49.7666V54H29.0664V48.7168H29.9257L29.9746 49.7666ZM29.789 51.1582L29.3691 51.1436C29.3724 50.7822 29.4196 50.4486 29.5107 50.1426C29.6018 49.8333 29.7369 49.5648 29.916 49.3369C30.095 49.109 30.318 48.9333 30.5849 48.8096C30.8518 48.6826 31.1611 48.6191 31.5127 48.6191C31.7601 48.6191 31.9879 48.6549 32.1962 48.7266C32.4046 48.7949 32.5852 48.904 32.7382 49.0537C32.8912 49.2035 33.0101 49.3955 33.0947 49.6299C33.1793 49.8643 33.2216 50.1475 33.2216 50.4795V54H32.3183V50.5234C32.3183 50.2467 32.2711 50.0254 32.1767 49.8594C32.0856 49.6934 31.9554 49.5729 31.7861 49.498C31.6168 49.4199 31.4183 49.3809 31.1904 49.3809C30.9235 49.3809 30.7005 49.4281 30.5214 49.5225C30.3424 49.6169 30.1992 49.7471 30.0918 49.9131C29.9843 50.0791 29.9062 50.2695 29.8574 50.4844C29.8118 50.696 29.789 50.9206 29.789 51.1582ZM33.2119 50.6602L32.6064 50.8457C32.6097 50.556 32.6569 50.2777 32.748 50.0107C32.8424 49.7438 32.9775 49.5062 33.1533 49.2979C33.3323 49.0895 33.552 48.9251 33.8125 48.8047C34.0729 48.681 34.3707 48.6191 34.706 48.6191C34.9892 48.6191 35.2399 48.6566 35.458 48.7314C35.6793 48.8063 35.8649 48.9219 36.0146 49.0781C36.1676 49.2311 36.2832 49.4281 36.3613 49.6689C36.4394 49.9098 36.4785 50.1963 36.4785 50.5283V54H35.5703V50.5186C35.5703 50.2223 35.5231 49.9928 35.4287 49.8301C35.3375 49.6641 35.2073 49.5485 35.038 49.4834C34.872 49.415 34.6735 49.3809 34.4423 49.3809C34.2438 49.3809 34.068 49.415 33.915 49.4834C33.762 49.5518 33.6334 49.6462 33.5293 49.7666C33.4251 49.8838 33.3453 50.0189 33.29 50.1719C33.2379 50.3249 33.2119 50.4876 33.2119 50.6602ZM39.718 54.0977C39.3502 54.0977 39.0165 54.0358 38.7171 53.9121C38.4208 53.7852 38.1653 53.6077 37.9505 53.3799C37.7389 53.152 37.5761 52.8818 37.4622 52.5693C37.3483 52.2568 37.2913 51.915 37.2913 51.5439V51.3389C37.2913 50.9092 37.3548 50.5267 37.4817 50.1914C37.6087 49.8529 37.7812 49.5664 37.9993 49.332C38.2174 49.0977 38.4648 48.9202 38.7415 48.7998C39.0182 48.6794 39.3046 48.6191 39.6009 48.6191C39.9785 48.6191 40.304 48.6842 40.5774 48.8145C40.8541 48.9447 41.0804 49.127 41.2561 49.3613C41.4319 49.5924 41.5621 49.8659 41.6468 50.1816C41.7314 50.4941 41.7737 50.8359 41.7737 51.207V51.6123H37.8284V50.875H40.8704V50.8066C40.8574 50.5723 40.8085 50.3444 40.7239 50.123C40.6425 49.9017 40.5123 49.7194 40.3333 49.5762C40.1542 49.4329 39.9101 49.3613 39.6009 49.3613C39.3958 49.3613 39.207 49.4053 39.0345 49.4932C38.8619 49.5778 38.7138 49.7048 38.5901 49.874C38.4664 50.0433 38.3704 50.25 38.302 50.4941C38.2337 50.7383 38.1995 51.0199 38.1995 51.3389V51.5439C38.1995 51.7946 38.2337 52.0306 38.302 52.252C38.3736 52.4701 38.4762 52.6621 38.6096 52.8281C38.7464 52.9941 38.9108 53.1243 39.1028 53.2188C39.2981 53.3132 39.5195 53.3604 39.7669 53.3604C40.0859 53.3604 40.3561 53.2952 40.5774 53.165C40.7988 53.0348 40.9925 52.8607 41.1585 52.6426L41.7054 53.0771C41.5914 53.2497 41.4466 53.4141 41.2708 53.5703C41.095 53.7266 40.8785 53.8535 40.6214 53.9512C40.3675 54.0488 40.0664 54.0977 39.718 54.0977ZM43.4117 49.8447V54H42.5084V48.7168H43.3629L43.4117 49.8447ZM43.1969 51.1582L42.8209 51.1436C42.8242 50.7822 42.8779 50.4486 42.982 50.1426C43.0862 49.8333 43.2327 49.5648 43.4215 49.3369C43.6103 49.109 43.8349 48.9333 44.0953 48.8096C44.359 48.6826 44.6503 48.6191 44.9693 48.6191C45.2298 48.6191 45.4641 48.6549 45.6725 48.7266C45.8808 48.7949 46.0582 48.9056 46.2047 49.0586C46.3544 49.2116 46.4684 49.4102 46.5465 49.6543C46.6246 49.8952 46.6637 50.1898 46.6637 50.5381V54H45.7555V50.5283C45.7555 50.2516 45.7148 50.0303 45.6334 49.8643C45.552 49.695 45.4332 49.5729 45.277 49.498C45.1207 49.4199 44.9286 49.3809 44.7008 49.3809C44.4762 49.3809 44.2711 49.4281 44.0855 49.5225C43.9033 49.6169 43.7454 49.7471 43.6119 49.9131C43.4817 50.0791 43.3792 50.2695 43.3043 50.4844C43.2327 50.696 43.1969 50.9206 43.1969 51.1582ZM49.9277 48.7168V49.4102H47.0712V48.7168H49.9277ZM48.038 47.4326H48.9413V52.6914C48.9413 52.8704 48.969 53.0055 49.0243 53.0967C49.0797 53.1878 49.1513 53.248 49.2392 53.2773C49.3271 53.3066 49.4215 53.3213 49.5224 53.3213C49.5973 53.3213 49.6754 53.3148 49.7568 53.3018C49.8414 53.2855 49.9049 53.2725 49.9472 53.2627L49.9521 54C49.8805 54.0228 49.7861 54.0439 49.6689 54.0635C49.5549 54.0863 49.4166 54.0977 49.2538 54.0977C49.0325 54.0977 48.829 54.0537 48.6435 53.9658C48.4579 53.8779 48.3098 53.7314 48.1991 53.5264C48.0917 53.318 48.038 53.0381 48.038 52.6865V47.4326Z" fill="white"/>
<rect x="14" y="7" width="12" height="20" rx="3" stroke="white" stroke-width="2"/>
<path d="M22 7.99995L18 7.99995" stroke="white" stroke-width="2" stroke-linecap="round"/>
</svg>
