<svg width="82" height="60" viewBox="0 0 82 60" fill="none" xmlns="http://www.w3.org/2000/svg">
<rect width="82" height="60" rx="10" fill="#1C1C1C"/>
<g clip-path="url(#clip0_12_494)">
<path fill-rule="evenodd" clip-rule="evenodd" d="M29.875 32.375C31.5989 32.375 33.2522 31.6902 34.4712 30.4712C35.6902 29.2522 36.375 27.5989 36.375 25.875C36.375 24.1511 35.6902 22.4978 34.4712 21.2788C33.2522 20.0598 31.5989 19.375 29.875 19.375C28.1511 19.375 26.4978 20.0598 25.2788 21.2788C24.0598 22.4978 23.375 24.1511 23.375 25.875C23.375 27.5989 24.0598 29.2522 25.2788 30.4712C26.4978 31.6902 28.1511 32.375 29.875 32.375ZM38 25.875C38 28.0299 37.144 30.0965 35.6202 31.6202C34.0965 33.144 32.0299 34 29.875 34C27.7201 34 25.6535 33.144 24.1298 31.6202C22.606 30.0965 21.75 28.0299 21.75 25.875C21.75 23.7201 22.606 21.6535 24.1298 20.1298C25.6535 18.606 27.7201 17.75 29.875 17.75C32.0299 17.75 34.0965 18.606 35.6202 20.1298C37.144 21.6535 38 23.7201 38 25.875Z" fill="white"/>
<path d="M27.3368 27.409C27.4131 28.3775 28.1785 29.1315 29.5516 29.2225V29.9375H30.161V29.2176C31.5829 29.1185 32.4133 28.358 32.4133 27.2563C32.4133 26.252 31.7795 25.7352 30.642 25.4688L30.161 25.355V23.405C30.772 23.4749 31.1588 23.808 31.2514 24.2695H32.3206C32.2443 23.3351 31.4431 22.6055 30.161 22.5259V21.8125H29.5516V22.5437C28.3378 22.6624 27.5123 23.392 27.5123 24.4255C27.5123 25.3387 28.1265 25.9205 29.1486 26.1577L29.5516 26.2569V28.3239C28.9276 28.2296 28.5133 27.8851 28.4206 27.409H27.3368ZM29.5468 25.2088C28.9471 25.0706 28.6221 24.7862 28.6221 24.3605C28.6221 23.8827 28.9731 23.5252 29.5516 23.4212V25.2088H29.5468ZM30.2488 26.421C30.9784 26.59 31.3131 26.863 31.3131 27.3456C31.3131 27.8965 30.8955 28.2735 30.161 28.3434V26.4015L30.2488 26.421Z" fill="white"/>
<path d="M13.625 8C13.194 8 12.7807 8.1712 12.476 8.47595C12.1712 8.7807 12 9.19402 12 9.625V22.625C12 23.056 12.1712 23.4693 12.476 23.774C12.7807 24.0788 13.194 24.25 13.625 24.25H20.2599C20.3541 23.691 20.4955 23.1482 20.6791 22.625H16.875C16.875 21.763 16.5326 20.9364 15.9231 20.3269C15.3136 19.7174 14.487 19.375 13.625 19.375V12.875C14.487 12.875 15.3136 12.5326 15.9231 11.9231C16.5326 11.3136 16.875 10.487 16.875 9.625H33.125C33.125 10.487 33.4674 11.3136 34.0769 11.9231C34.6864 12.5326 35.513 12.875 36.375 12.875V18.608C36.9925 19.1605 37.5401 19.791 38 20.4833V9.625C38 9.19402 37.8288 8.7807 37.524 8.47595C37.2193 8.1712 36.806 8 36.375 8H13.625Z" fill="white"/>
<path d="M28.2468 16.2599L28.25 16.125C28.2497 15.5653 28.1048 15.0152 27.8295 14.528C27.5541 14.0408 27.1576 13.6329 26.6784 13.3438C26.1991 13.0548 25.6533 12.8945 25.0939 12.8783C24.5345 12.8621 23.9803 12.9907 23.4852 13.2516C22.99 13.5124 22.5706 13.8967 22.2676 14.3672C21.9646 14.8378 21.7882 15.3786 21.7555 15.9373C21.7229 16.496 21.8351 17.0537 22.0812 17.5563C22.3273 18.0589 22.6991 18.4895 23.1605 18.8063C24.5641 17.4693 26.3354 16.5826 28.2468 16.2599Z" fill="white"/>
</g>
<path d="M14.6953 41.8516L16.1064 36.8906H16.79L16.3945 38.8193L14.876 44H14.1973L14.6953 41.8516ZM13.2354 36.8906L14.3584 41.7539L14.6953 44H14.0215L12.2979 36.8906H13.2354ZM18.6162 41.749L19.7148 36.8906H20.6572L18.9385 44H18.2646L18.6162 41.749ZM16.8926 36.8906L18.2646 41.8516L18.7627 44H18.084L16.6191 38.8193L16.2188 36.8906H16.8926ZM22.2269 38.7168V44H21.3187V38.7168H22.2269ZM21.2503 37.3154C21.2503 37.1689 21.2943 37.0452 21.3821 36.9443C21.4733 36.8434 21.6068 36.793 21.7825 36.793C21.9551 36.793 22.0869 36.8434 22.178 36.9443C22.2724 37.0452 22.3196 37.1689 22.3196 37.3154C22.3196 37.4554 22.2724 37.5758 22.178 37.6768C22.0869 37.7744 21.9551 37.8232 21.7825 37.8232C21.6068 37.8232 21.4733 37.7744 21.3821 37.6768C21.2943 37.5758 21.2503 37.4554 21.2503 37.3154ZM25.569 38.7168V39.4102H22.7125V38.7168H25.569ZM23.6793 37.4326H24.5827V42.6914C24.5827 42.8704 24.6103 43.0055 24.6657 43.0967C24.721 43.1878 24.7926 43.248 24.8805 43.2773C24.9684 43.3066 25.0628 43.3213 25.1637 43.3213C25.2386 43.3213 25.3167 43.3148 25.3981 43.3018C25.4827 43.2855 25.5462 43.2725 25.5885 43.2627L25.5934 44C25.5218 44.0228 25.4274 44.0439 25.3102 44.0635C25.1963 44.0863 25.0579 44.0977 24.8952 44.0977C24.6738 44.0977 24.4704 44.0537 24.2848 43.9658C24.0993 43.8779 23.9511 43.7314 23.8405 43.5264C23.733 43.318 23.6793 43.0381 23.6793 42.6865V37.4326ZM27.2119 36.5V44H26.3086V36.5H27.2119ZM26.997 41.1582L26.6211 41.1436C26.6243 40.7822 26.678 40.4486 26.7822 40.1426C26.8864 39.8333 27.0328 39.5648 27.2216 39.3369C27.4104 39.109 27.6351 38.9333 27.8955 38.8096C28.1591 38.6826 28.4505 38.6191 28.7695 38.6191C29.0299 38.6191 29.2643 38.6549 29.4726 38.7266C29.681 38.7949 29.8584 38.9056 30.0048 39.0586C30.1546 39.2116 30.2685 39.4102 30.3466 39.6543C30.4248 39.8952 30.4638 40.1898 30.4638 40.5381V44H29.5556V40.5283C29.5556 40.2516 29.5149 40.0303 29.4336 39.8643C29.3522 39.695 29.2334 39.5729 29.0771 39.498C28.9209 39.4199 28.7288 39.3809 28.5009 39.3809C28.2763 39.3809 28.0712 39.4281 27.8857 39.5225C27.7034 39.6169 27.5455 39.7471 27.4121 39.9131C27.2819 40.0791 27.1793 40.2695 27.1045 40.4844C27.0328 40.696 26.997 40.9206 26.997 41.1582ZM34.8264 42.9746V36.5H35.7346V44H34.9046L34.8264 42.9746ZM31.2718 41.417V41.3145C31.2718 40.9108 31.3206 40.5446 31.4182 40.2158C31.5192 39.8838 31.6608 39.599 31.843 39.3613C32.0286 39.1237 32.2483 38.9414 32.5022 38.8145C32.7594 38.6842 33.0458 38.6191 33.3616 38.6191C33.6936 38.6191 33.9833 38.6777 34.2307 38.7949C34.4814 38.9089 34.693 39.0765 34.8655 39.2979C35.0413 39.516 35.1796 39.7796 35.2805 40.0889C35.3815 40.3981 35.4514 40.748 35.4905 41.1387V41.5879C35.4547 41.9753 35.3847 42.3236 35.2805 42.6328C35.1796 42.9421 35.0413 43.2057 34.8655 43.4238C34.693 43.6419 34.4814 43.8096 34.2307 43.9268C33.9801 44.0407 33.6871 44.0977 33.3518 44.0977C33.0426 44.0977 32.7594 44.0309 32.5022 43.8975C32.2483 43.764 32.0286 43.5768 31.843 43.3359C31.6608 43.0951 31.5192 42.8118 31.4182 42.4863C31.3206 42.1576 31.2718 41.8011 31.2718 41.417ZM32.18 41.3145V41.417C32.18 41.6807 32.206 41.9281 32.2581 42.1592C32.3134 42.3903 32.3981 42.5938 32.512 42.7695C32.6259 42.9453 32.7708 43.0837 32.9466 43.1846C33.1223 43.2822 33.3323 43.3311 33.5764 43.3311C33.8759 43.3311 34.1217 43.2676 34.3137 43.1406C34.5091 43.0137 34.6653 42.846 34.7825 42.6377C34.8997 42.4294 34.9908 42.2031 35.0559 41.959V40.7822C35.0169 40.6032 34.9599 40.4307 34.885 40.2646C34.8134 40.0954 34.719 39.9456 34.6018 39.8154C34.4879 39.682 34.3463 39.5762 34.177 39.498C34.011 39.4199 33.8141 39.3809 33.5862 39.3809C33.3388 39.3809 33.1256 39.4329 32.9466 39.5371C32.7708 39.638 32.6259 39.778 32.512 39.957C32.3981 40.1328 32.3134 40.3379 32.2581 40.5723C32.206 40.8034 32.18 41.0508 32.18 41.3145ZM37.7242 39.5469V44H36.8209V38.7168H37.6998L37.7242 39.5469ZM39.3746 38.6875L39.3697 39.5273C39.2949 39.5111 39.2232 39.5013 39.1549 39.498C39.0898 39.4915 39.0149 39.4883 38.9303 39.4883C38.7219 39.4883 38.538 39.5208 38.3785 39.5859C38.219 39.651 38.0839 39.7422 37.9732 39.8594C37.8626 39.9766 37.7747 40.1165 37.7096 40.2793C37.6477 40.4388 37.607 40.6146 37.5875 40.8066L37.3336 40.9531C37.3336 40.6341 37.3645 40.3346 37.4264 40.0547C37.4915 39.7747 37.5908 39.5273 37.7242 39.3125C37.8577 39.0944 38.027 38.9251 38.232 38.8047C38.4404 38.681 38.6878 38.6191 38.9742 38.6191C39.0393 38.6191 39.1142 38.6273 39.1988 38.6436C39.2835 38.6566 39.3421 38.6712 39.3746 38.6875ZM42.8095 43.0967V40.377C42.8095 40.1686 42.7672 39.988 42.6825 39.835C42.6012 39.6787 42.4775 39.5583 42.3114 39.4736C42.1454 39.389 41.9404 39.3467 41.6962 39.3467C41.4683 39.3467 41.2682 39.3857 41.0956 39.4639C40.9264 39.542 40.7929 39.6445 40.6952 39.7715C40.6008 39.8984 40.5536 40.0352 40.5536 40.1816H39.6503C39.6503 39.9928 39.6991 39.8057 39.7968 39.6201C39.8945 39.4346 40.0344 39.2669 40.2167 39.1172C40.4023 38.9642 40.6236 38.8438 40.8808 38.7559C41.1412 38.6647 41.4309 38.6191 41.7499 38.6191C42.134 38.6191 42.4726 38.6842 42.7655 38.8145C43.0618 38.9447 43.2929 39.1416 43.4589 39.4053C43.6282 39.6657 43.7128 39.9928 43.7128 40.3867V42.8477C43.7128 43.0234 43.7275 43.2106 43.7568 43.4092C43.7893 43.6077 43.8365 43.7786 43.8984 43.9219V44H42.956C42.9104 43.8958 42.8746 43.7575 42.8486 43.585C42.8225 43.4092 42.8095 43.2464 42.8095 43.0967ZM42.9657 40.7969L42.9755 41.4316H42.0624C41.8053 41.4316 41.5758 41.4528 41.3739 41.4951C41.1721 41.5342 41.0029 41.5944 40.8661 41.6758C40.7294 41.7572 40.6252 41.8597 40.5536 41.9834C40.482 42.1038 40.4462 42.2454 40.4462 42.4082C40.4462 42.5742 40.4836 42.7256 40.5585 42.8623C40.6334 42.999 40.7457 43.1081 40.8954 43.1895C41.0484 43.2676 41.2356 43.3066 41.457 43.3066C41.7336 43.3066 41.9778 43.248 42.1894 43.1309C42.401 43.0137 42.5686 42.8704 42.6923 42.7012C42.8193 42.5319 42.8876 42.3675 42.8974 42.208L43.2831 42.6426C43.2603 42.7793 43.1985 42.9307 43.0976 43.0967C42.9967 43.2627 42.8616 43.4222 42.6923 43.5752C42.5263 43.7249 42.3277 43.8503 42.0966 43.9512C41.8687 44.0488 41.6116 44.0977 41.3251 44.0977C40.967 44.0977 40.6529 44.0277 40.3827 43.8877C40.1158 43.7477 39.9075 43.5605 39.7577 43.3262C39.6112 43.0885 39.538 42.8232 39.538 42.5303C39.538 42.2471 39.5933 41.998 39.704 41.7832C39.8147 41.5651 39.9742 41.3844 40.1825 41.2412C40.3909 41.0947 40.6415 40.984 40.9345 40.9092C41.2275 40.8343 41.5546 40.7969 41.9159 40.7969H42.9657ZM46.1516 43.0625L47.509 38.7168H48.1047L47.9875 39.5811L46.6057 44H46.0246L46.1516 43.0625ZM45.2385 38.7168L46.3957 43.1113L46.4787 44H45.8684L44.3352 38.7168H45.2385ZM49.4036 43.0771L50.5071 38.7168H51.4055L49.8723 44H49.2668L49.4036 43.0771ZM48.2366 38.7168L49.5647 42.9893L49.7161 44H49.1399L47.719 39.5713L47.6018 38.7168H48.2366ZM13.123 46.8906H14.0361L16.3652 52.6865L18.6895 46.8906H19.6074L16.7168 54H16.0039L13.123 46.8906ZM12.8252 46.8906H13.6309L13.7627 51.2266V54H12.8252V46.8906ZM19.0947 46.8906H19.9004V54H18.9629V51.2266L19.0947 46.8906ZM20.8597 51.417V51.3047C20.8597 50.9238 20.915 50.5706 21.0257 50.2451C21.1364 49.9163 21.2959 49.6315 21.5042 49.3906C21.7126 49.1465 21.9648 48.9577 22.2611 48.8242C22.5573 48.6875 22.8893 48.6191 23.2571 48.6191C23.6282 48.6191 23.9619 48.6875 24.2581 48.8242C24.5576 48.9577 24.8115 49.1465 25.0198 49.3906C25.2314 49.6315 25.3926 49.9163 25.5032 50.2451C25.6139 50.5706 25.6693 50.9238 25.6693 51.3047V51.417C25.6693 51.7979 25.6139 52.151 25.5032 52.4766C25.3926 52.8021 25.2314 53.0869 25.0198 53.3311C24.8115 53.5719 24.5592 53.7607 24.263 53.8975C23.97 54.0309 23.638 54.0977 23.2669 54.0977C22.8958 54.0977 22.5622 54.0309 22.2659 53.8975C21.9697 53.7607 21.7158 53.5719 21.5042 53.3311C21.2959 53.0869 21.1364 52.8021 21.0257 52.4766C20.915 52.151 20.8597 51.7979 20.8597 51.417ZM21.763 51.3047V51.417C21.763 51.6807 21.7939 51.9297 21.8558 52.1641C21.9176 52.3952 22.0104 52.6003 22.1341 52.7793C22.2611 52.9583 22.4189 53.0999 22.6077 53.2041C22.7965 53.305 23.0163 53.3555 23.2669 53.3555C23.5143 53.3555 23.7308 53.305 23.9163 53.2041C24.1051 53.0999 24.2614 52.9583 24.3851 52.7793C24.5088 52.6003 24.6015 52.3952 24.6634 52.1641C24.7285 51.9297 24.7611 51.6807 24.7611 51.417V51.3047C24.7611 51.0443 24.7285 50.7985 24.6634 50.5674C24.6015 50.333 24.5071 50.1263 24.3802 49.9473C24.2565 49.765 24.1002 49.6217 23.9114 49.5176C23.7259 49.4134 23.5078 49.3613 23.2571 49.3613C23.0098 49.3613 22.7917 49.4134 22.6029 49.5176C22.4173 49.6217 22.2611 49.765 22.1341 49.9473C22.0104 50.1263 21.9176 50.333 21.8558 50.5674C21.7939 50.7985 21.763 51.0443 21.763 51.3047ZM27.3854 49.8447V54H26.4821V48.7168H27.3366L27.3854 49.8447ZM27.1705 51.1582L26.7946 51.1436C26.7978 50.7822 26.8515 50.4486 26.9557 50.1426C27.0599 49.8333 27.2064 49.5648 27.3952 49.3369C27.584 49.109 27.8086 48.9333 28.069 48.8096C28.3327 48.6826 28.624 48.6191 28.943 48.6191C29.2034 48.6191 29.4378 48.6549 29.6461 48.7266C29.8545 48.7949 30.0319 48.9056 30.1784 49.0586C30.3281 49.2116 30.442 49.4102 30.5202 49.6543C30.5983 49.8952 30.6373 50.1898 30.6373 50.5381V54H29.7291V50.5283C29.7291 50.2516 29.6885 50.0303 29.6071 49.8643C29.5257 49.695 29.4069 49.5729 29.2506 49.498C29.0944 49.4199 28.9023 49.3809 28.6745 49.3809C28.4498 49.3809 28.2448 49.4281 28.0592 49.5225C27.8769 49.6169 27.719 49.7471 27.5856 49.9131C27.4554 50.0791 27.3528 50.2695 27.278 50.4844C27.2064 50.696 27.1705 50.9206 27.1705 51.1582ZM33.8818 54.0977C33.514 54.0977 33.1803 54.0358 32.8808 53.9121C32.5846 53.7852 32.3291 53.6077 32.1142 53.3799C31.9026 53.152 31.7399 52.8818 31.6259 52.5693C31.512 52.2568 31.455 51.915 31.455 51.5439V51.3389C31.455 50.9092 31.5185 50.5267 31.6455 50.1914C31.7724 49.8529 31.9449 49.5664 32.163 49.332C32.3811 49.0977 32.6285 48.9202 32.9052 48.7998C33.1819 48.6794 33.4684 48.6191 33.7646 48.6191C34.1422 48.6191 34.4677 48.6842 34.7412 48.8145C35.0179 48.9447 35.2441 49.127 35.4199 49.3613C35.5957 49.5924 35.7259 49.8659 35.8105 50.1816C35.8951 50.4941 35.9375 50.8359 35.9375 51.207V51.6123H31.9921V50.875H35.0341V50.8066C35.0211 50.5723 34.9723 50.3444 34.8877 50.123C34.8063 49.9017 34.6761 49.7194 34.497 49.5762C34.318 49.4329 34.0739 49.3613 33.7646 49.3613C33.5595 49.3613 33.3707 49.4053 33.1982 49.4932C33.0257 49.5778 32.8776 49.7048 32.7539 49.874C32.6302 50.0433 32.5341 50.25 32.4658 50.4941C32.3974 50.7383 32.3632 51.0199 32.3632 51.3389V51.5439C32.3632 51.7946 32.3974 52.0306 32.4658 52.252C32.5374 52.4701 32.6399 52.6621 32.7734 52.8281C32.9101 52.9941 33.0745 53.1243 33.2666 53.2188C33.4619 53.3132 33.6832 53.3604 33.9306 53.3604C34.2496 53.3604 34.5198 53.2952 34.7412 53.165C34.9625 53.0348 35.1562 52.8607 35.3222 52.6426L35.8691 53.0771C35.7552 53.2497 35.6103 53.4141 35.4345 53.5703C35.2588 53.7266 35.0423 53.8535 34.7851 53.9512C34.5312 54.0488 34.2301 54.0977 33.8818 54.0977ZM38.0882 53.4531L39.5579 48.7168H40.5247L38.4055 54.8154C38.3567 54.9456 38.2916 55.0856 38.2102 55.2354C38.1321 55.3883 38.0312 55.5332 37.9075 55.6699C37.7838 55.8066 37.6341 55.9173 37.4583 56.002C37.2858 56.0898 37.079 56.1338 36.8382 56.1338C36.7665 56.1338 36.6754 56.124 36.5647 56.1045C36.454 56.085 36.3759 56.0687 36.3304 56.0557L36.3255 55.3232C36.3515 55.3265 36.3922 55.3298 36.4475 55.333C36.5061 55.3395 36.5468 55.3428 36.5696 55.3428C36.7747 55.3428 36.9488 55.3151 37.0921 55.2598C37.2353 55.2077 37.3557 55.1182 37.4534 54.9912C37.5543 54.8675 37.6406 54.6966 37.7122 54.4785L38.0882 53.4531ZM37.0091 48.7168L38.3811 52.8184L38.6155 53.7705L37.9661 54.1025L36.0227 48.7168H37.0091Z" fill="white"/>
<defs>
<clipPath id="clip0_12_494">
<rect width="26" height="26" fill="white" transform="translate(12 8)"/>
</clipPath>
</defs>
</svg>
