<svg width="82" height="60" viewBox="0 0 82 60" fill="none" xmlns="http://www.w3.org/2000/svg">
<rect width="82" height="60" rx="10" fill="#1C1C1C"/>
<path fill-rule="evenodd" clip-rule="evenodd" d="M15.3333 7.33333C14.5969 7.33333 14 7.93029 14 8.66667V24.6667C14 25.403 14.5969 26 15.3333 26H26C26.7363 26 27.3333 25.403 27.3333 24.6667V8.66667C27.3333 7.93029 26.7363 7.33333 26 7.33333H15.3333ZM12.6666 8.66667C12.6666 7.19391 13.8605 6 15.3333 6H26C27.4727 6 28.6666 7.19391 28.6666 8.66667V24.6667C28.6666 26.1394 27.4727 27.3333 26 27.3333H15.3333C13.8605 27.3333 12.6666 26.1394 12.6666 24.6667V8.66667Z" fill="white"/>
<path fill-rule="evenodd" clip-rule="evenodd" d="M23.8048 10.8619C24.0651 11.1223 24.0651 11.5444 23.8048 11.8047L18.4714 17.1381C18.2111 17.3984 17.789 17.3984 17.5286 17.1381C17.2683 16.8777 17.2683 16.4556 17.5286 16.1953L22.862 10.8619C23.1223 10.6016 23.5444 10.6016 23.8048 10.8619Z" fill="white"/>
<path fill-rule="evenodd" clip-rule="evenodd" d="M17.3334 12C17.3334 11.2636 17.9303 10.6667 18.6667 10.6667C19.4031 10.6667 20 11.2636 20 12C20 12.7364 19.4031 13.3333 18.6667 13.3333C17.9303 13.3333 17.3334 12.7364 17.3334 12Z" fill="white"/>
<path fill-rule="evenodd" clip-rule="evenodd" d="M21.3334 16C21.3334 15.2636 21.9303 14.6667 22.6667 14.6667C23.4031 14.6667 24 15.2636 24 16C24 16.7364 23.4031 17.3333 22.6667 17.3333C21.9303 17.3333 21.3334 16.7364 21.3334 16Z" fill="white"/>
<path fill-rule="evenodd" clip-rule="evenodd" d="M16 20.6667C16 20.2985 16.2985 20 16.6667 20H24.6667C25.0349 20 25.3333 20.2985 25.3333 20.6667C25.3333 21.0349 25.0349 21.3333 24.6667 21.3333H16.6667C16.2985 21.3333 16 21.0349 16 20.6667Z" fill="white"/>
<path fill-rule="evenodd" clip-rule="evenodd" d="M16 23.3333C16 22.9651 16.2985 22.6667 16.6667 22.6667H24.6667C25.0349 22.6667 25.3333 22.9651 25.3333 23.3333C25.3333 23.7015 25.0349 24 24.6667 24H16.6667C16.2985 24 16 23.7015 16 23.3333Z" fill="white"/>
<path d="M17.6143 42.2031C17.6143 42.0371 17.5882 41.8906 17.5361 41.7637C17.4873 41.6335 17.3994 41.5163 17.2725 41.4121C17.1488 41.3079 16.9762 41.2087 16.7549 41.1143C16.5368 41.0199 16.2601 40.9238 15.9248 40.8262C15.5732 40.722 15.2559 40.6064 14.9727 40.4795C14.6895 40.3493 14.4469 40.2012 14.2451 40.0352C14.0433 39.8691 13.8887 39.6787 13.7812 39.4639C13.6738 39.249 13.6201 39.0033 13.6201 38.7266C13.6201 38.4499 13.6771 38.1943 13.791 37.96C13.9049 37.7256 14.0677 37.5221 14.2793 37.3496C14.4941 37.1738 14.7497 37.0371 15.0459 36.9395C15.3421 36.8418 15.6725 36.793 16.0371 36.793C16.571 36.793 17.0234 36.8955 17.3945 37.1006C17.7689 37.3024 18.0537 37.5677 18.249 37.8965C18.4443 38.222 18.542 38.5703 18.542 38.9414H17.6045C17.6045 38.6745 17.5475 38.4385 17.4336 38.2334C17.3197 38.0251 17.1471 37.8623 16.916 37.7451C16.6849 37.6247 16.3919 37.5645 16.0371 37.5645C15.7018 37.5645 15.4251 37.6149 15.207 37.7158C14.9889 37.8167 14.8262 37.9535 14.7188 38.126C14.6146 38.2985 14.5625 38.4954 14.5625 38.7168C14.5625 38.8665 14.5934 39.0033 14.6553 39.127C14.7204 39.2474 14.8197 39.3597 14.9531 39.4639C15.0898 39.568 15.2624 39.6641 15.4707 39.752C15.6823 39.8398 15.9346 39.9245 16.2275 40.0059C16.6312 40.1198 16.9795 40.2467 17.2725 40.3867C17.5654 40.5267 17.8063 40.6846 17.9951 40.8604C18.1872 41.0329 18.3288 41.2298 18.4199 41.4512C18.5143 41.6693 18.5615 41.9167 18.5615 42.1934C18.5615 42.4831 18.5029 42.7451 18.3857 42.9795C18.2686 43.2139 18.1009 43.4141 17.8828 43.5801C17.6647 43.7461 17.4027 43.8747 17.0967 43.9658C16.7939 44.0537 16.4554 44.0977 16.0811 44.0977C15.7523 44.0977 15.4284 44.0521 15.1094 43.9609C14.7936 43.8698 14.5055 43.7331 14.2451 43.5508C13.988 43.3685 13.7812 43.1439 13.625 42.877C13.472 42.6068 13.3955 42.2943 13.3955 41.9395H14.333C14.333 42.1836 14.3802 42.3936 14.4746 42.5693C14.569 42.7419 14.6976 42.8851 14.8604 42.999C15.0264 43.113 15.2135 43.1976 15.4219 43.2529C15.6335 43.305 15.8532 43.3311 16.0811 43.3311C16.4098 43.3311 16.6882 43.2855 16.916 43.1943C17.1439 43.1032 17.3164 42.973 17.4336 42.8037C17.554 42.6344 17.6143 42.4342 17.6143 42.2031ZM21.4984 44.0977C21.1305 44.0977 20.7969 44.0358 20.4974 43.9121C20.2012 43.7852 19.9456 43.6077 19.7308 43.3799C19.5192 43.152 19.3564 42.8818 19.2425 42.5693C19.1286 42.2568 19.0716 41.915 19.0716 41.5439V41.3389C19.0716 40.9092 19.1351 40.5267 19.262 40.1914C19.389 39.8529 19.5615 39.5664 19.7796 39.332C19.9977 39.0977 20.2451 38.9202 20.5218 38.7998C20.7985 38.6794 21.0849 38.6191 21.3812 38.6191C21.7588 38.6191 22.0843 38.6842 22.3577 38.8145C22.6344 38.9447 22.8607 39.127 23.0364 39.3613C23.2122 39.5924 23.3424 39.8659 23.4271 40.1816C23.5117 40.4941 23.554 40.8359 23.554 41.207V41.6123H19.6087V40.875H22.6507V40.8066C22.6377 40.5723 22.5889 40.3444 22.5042 40.123C22.4228 39.9017 22.2926 39.7194 22.1136 39.5762C21.9346 39.4329 21.6904 39.3613 21.3812 39.3613C21.1761 39.3613 20.9873 39.4053 20.8148 39.4932C20.6422 39.5778 20.4941 39.7048 20.3704 39.874C20.2467 40.0433 20.1507 40.25 20.0823 40.4941C20.014 40.7383 19.9798 41.0199 19.9798 41.3389V41.5439C19.9798 41.7946 20.014 42.0306 20.0823 42.252C20.154 42.4701 20.2565 42.6621 20.39 42.8281C20.5267 42.9941 20.6911 43.1243 20.8831 43.2188C21.0784 43.3132 21.2998 43.3604 21.5472 43.3604C21.8662 43.3604 22.1364 43.2952 22.3577 43.165C22.5791 43.0348 22.7728 42.8607 22.9388 42.6426L23.4857 43.0771C23.3717 43.2497 23.2269 43.4141 23.0511 43.5703C22.8753 43.7266 22.6588 43.8535 22.4017 43.9512C22.1478 44.0488 21.8467 44.0977 21.4984 44.0977ZM25.192 39.8447V44H24.2887V38.7168H25.1432L25.192 39.8447ZM24.9772 41.1582L24.6012 41.1436C24.6045 40.7822 24.6582 40.4486 24.7623 40.1426C24.8665 39.8333 25.013 39.5648 25.2018 39.3369C25.3906 39.109 25.6152 38.9333 25.8756 38.8096C26.1393 38.6826 26.4306 38.6191 26.7496 38.6191C27.0101 38.6191 27.2444 38.6549 27.4528 38.7266C27.6611 38.7949 27.8385 38.9056 27.985 39.0586C28.1347 39.2116 28.2487 39.4102 28.3268 39.6543C28.4049 39.8952 28.444 40.1898 28.444 40.5381V44H27.5358V40.5283C27.5358 40.2516 27.4951 40.0303 27.4137 39.8643C27.3323 39.695 27.2135 39.5729 27.0573 39.498C26.901 39.4199 26.709 39.3809 26.4811 39.3809C26.2565 39.3809 26.0514 39.4281 25.8659 39.5225C25.6836 39.6169 25.5257 39.7471 25.3922 39.9131C25.262 40.0791 25.1595 40.2695 25.0846 40.4844C25.013 40.696 24.9772 40.9206 24.9772 41.1582ZM32.8261 42.9746V36.5H33.7343V44H32.9043L32.8261 42.9746ZM29.2714 41.417V41.3145C29.2714 40.9108 29.3203 40.5446 29.4179 40.2158C29.5188 39.8838 29.6604 39.599 29.8427 39.3613C30.0283 39.1237 30.248 38.9414 30.5019 38.8145C30.7591 38.6842 31.0455 38.6191 31.3613 38.6191C31.6933 38.6191 31.983 38.6777 32.2304 38.7949C32.4811 38.9089 32.6927 39.0765 32.8652 39.2979C33.041 39.516 33.1793 39.7796 33.2802 40.0889C33.3811 40.3981 33.4511 40.748 33.4902 41.1387V41.5879C33.4544 41.9753 33.3844 42.3236 33.2802 42.6328C33.1793 42.9421 33.041 43.2057 32.8652 43.4238C32.6927 43.6419 32.4811 43.8096 32.2304 43.9268C31.9798 44.0407 31.6868 44.0977 31.3515 44.0977C31.0423 44.0977 30.7591 44.0309 30.5019 43.8975C30.248 43.764 30.0283 43.5768 29.8427 43.3359C29.6604 43.0951 29.5188 42.8118 29.4179 42.4863C29.3203 42.1576 29.2714 41.8011 29.2714 41.417ZM30.1796 41.3145V41.417C30.1796 41.6807 30.2057 41.9281 30.2578 42.1592C30.3131 42.3903 30.3977 42.5938 30.5117 42.7695C30.6256 42.9453 30.7705 43.0837 30.9462 43.1846C31.122 43.2822 31.332 43.3311 31.5761 43.3311C31.8756 43.3311 32.1214 43.2676 32.3134 43.1406C32.5087 43.0137 32.665 42.846 32.7822 42.6377C32.8994 42.4294 32.9905 42.2031 33.0556 41.959V40.7822C33.0166 40.6032 32.9596 40.4307 32.8847 40.2646C32.8131 40.0954 32.7187 39.9456 32.6015 39.8154C32.4876 39.682 32.346 39.5762 32.1767 39.498C32.0107 39.4199 31.8138 39.3809 31.5859 39.3809C31.3385 39.3809 31.1253 39.4329 30.9462 39.5371C30.7705 39.638 30.6256 39.778 30.5117 39.957C30.3977 40.1328 30.3131 40.3379 30.2578 40.5723C30.2057 40.8034 30.1796 41.0508 30.1796 41.3145ZM14.8359 46.8906V54H13.8936V46.8906H14.8359ZM16.9964 49.8447V54H16.0931V48.7168H16.9476L16.9964 49.8447ZM16.7816 51.1582L16.4056 51.1436C16.4088 50.7822 16.4626 50.4486 16.5667 50.1426C16.6709 49.8333 16.8174 49.5648 17.0062 49.3369C17.195 49.109 17.4196 48.9333 17.68 48.8096C17.9437 48.6826 18.235 48.6191 18.554 48.6191C18.8144 48.6191 19.0488 48.6549 19.2571 48.7266C19.4655 48.7949 19.6429 48.9056 19.7894 49.0586C19.9391 49.2116 20.053 49.4102 20.1312 49.6543C20.2093 49.8952 20.2484 50.1898 20.2484 50.5381V54H19.3402V50.5283C19.3402 50.2516 19.2995 50.0303 19.2181 49.8643C19.1367 49.695 19.0179 49.5729 18.8616 49.498C18.7054 49.4199 18.5133 49.3809 18.2855 49.3809C18.0609 49.3809 17.8558 49.4281 17.6702 49.5225C17.4879 49.6169 17.3301 49.7471 17.1966 49.9131C17.0664 50.0791 16.9639 50.2695 16.889 50.4844C16.8174 50.696 16.7816 50.9206 16.7816 51.1582ZM22.9069 53.1846L24.3522 48.7168H25.275L23.3756 54H22.7702L22.9069 53.1846ZM21.7008 48.7168L23.1901 53.209L23.2926 54H22.6871L20.7731 48.7168H21.7008ZM25.5068 51.417V51.3047C25.5068 50.9238 25.5621 50.5706 25.6728 50.2451C25.7835 49.9163 25.943 49.6315 26.1513 49.3906C26.3597 49.1465 26.6119 48.9577 26.9082 48.8242C27.2044 48.6875 27.5364 48.6191 27.9043 48.6191C28.2754 48.6191 28.609 48.6875 28.9052 48.8242C29.2047 48.9577 29.4586 49.1465 29.667 49.3906C29.8785 49.6315 30.0397 49.9163 30.1504 50.2451C30.261 50.5706 30.3164 50.9238 30.3164 51.3047V51.417C30.3164 51.7979 30.261 52.151 30.1504 52.4766C30.0397 52.8021 29.8785 53.0869 29.667 53.3311C29.4586 53.5719 29.2063 53.7607 28.9101 53.8975C28.6171 54.0309 28.2851 54.0977 27.914 54.0977C27.5429 54.0977 27.2093 54.0309 26.913 53.8975C26.6168 53.7607 26.3629 53.5719 26.1513 53.3311C25.943 53.0869 25.7835 52.8021 25.6728 52.4766C25.5621 52.151 25.5068 51.7979 25.5068 51.417ZM26.4101 51.3047V51.417C26.4101 51.6807 26.441 51.9297 26.5029 52.1641C26.5647 52.3952 26.6575 52.6003 26.7812 52.7793C26.9082 52.9583 27.066 53.0999 27.2548 53.2041C27.4436 53.305 27.6634 53.3555 27.914 53.3555C28.1614 53.3555 28.3779 53.305 28.5634 53.2041C28.7522 53.0999 28.9085 52.9583 29.0322 52.7793C29.1559 52.6003 29.2487 52.3952 29.3105 52.1641C29.3756 51.9297 29.4082 51.6807 29.4082 51.417V51.3047C29.4082 51.0443 29.3756 50.7985 29.3105 50.5674C29.2487 50.333 29.1543 50.1263 29.0273 49.9473C28.9036 49.765 28.7474 49.6217 28.5586 49.5176C28.373 49.4134 28.1549 49.3613 27.9043 49.3613C27.6569 49.3613 27.4388 49.4134 27.25 49.5176C27.0644 49.6217 26.9082 49.765 26.7812 49.9473C26.6575 50.1263 26.5647 50.333 26.5029 50.5674C26.441 50.7985 26.4101 51.0443 26.4101 51.3047ZM32.1106 48.7168V54H31.2024V48.7168H32.1106ZM31.1341 47.3154C31.1341 47.1689 31.178 47.0452 31.2659 46.9443C31.357 46.8434 31.4905 46.793 31.6663 46.793C31.8388 46.793 31.9707 46.8434 32.0618 46.9443C32.1562 47.0452 32.2034 47.1689 32.2034 47.3154C32.2034 47.4554 32.1562 47.5758 32.0618 47.6768C31.9707 47.7744 31.8388 47.8232 31.6663 47.8232C31.4905 47.8232 31.357 47.7744 31.2659 47.6768C31.178 47.5758 31.1341 47.4554 31.1341 47.3154ZM35.3551 53.3555C35.5699 53.3555 35.7685 53.3115 35.9508 53.2236C36.1331 53.1357 36.2828 53.0153 36.4 52.8623C36.5172 52.7061 36.5839 52.5286 36.6002 52.3301H37.4596C37.4433 52.6426 37.3375 52.9339 37.1422 53.2041C36.9501 53.471 36.6979 53.6875 36.3854 53.8535C36.0729 54.0163 35.7294 54.0977 35.3551 54.0977C34.9579 54.0977 34.6113 54.0277 34.315 53.8877C34.0221 53.7477 33.7779 53.5557 33.5826 53.3115C33.3906 53.0674 33.2457 52.7874 33.148 52.4717C33.0536 52.1527 33.0064 51.8158 33.0064 51.4609V51.2559C33.0064 50.901 33.0536 50.5658 33.148 50.25C33.2457 49.931 33.3906 49.6494 33.5826 49.4053C33.7779 49.1611 34.0221 48.9691 34.315 48.8291C34.6113 48.6891 34.9579 48.6191 35.3551 48.6191C35.7685 48.6191 36.1298 48.7038 36.4391 48.873C36.7483 49.0391 36.9908 49.2669 37.1666 49.5566C37.3456 49.8431 37.4433 50.1686 37.4596 50.5332H36.6002C36.5839 50.3151 36.5221 50.1182 36.4146 49.9424C36.3105 49.7666 36.1673 49.6266 35.985 49.5225C35.8059 49.415 35.596 49.3613 35.3551 49.3613C35.0784 49.3613 34.8456 49.4167 34.6568 49.5273C34.4713 49.6348 34.3232 49.7812 34.2125 49.9668C34.1051 50.1491 34.027 50.3525 33.9781 50.5771C33.9326 50.7985 33.9098 51.0247 33.9098 51.2559V51.4609C33.9098 51.6921 33.9326 51.9199 33.9781 52.1445C34.0237 52.3691 34.1002 52.5726 34.2076 52.7549C34.3183 52.9372 34.4664 53.0837 34.652 53.1943C34.8408 53.3018 35.0751 53.3555 35.3551 53.3555ZM40.3476 54.0977C39.9797 54.0977 39.6461 54.0358 39.3466 53.9121C39.0504 53.7852 38.7948 53.6077 38.58 53.3799C38.3684 53.152 38.2057 52.8818 38.0917 52.5693C37.9778 52.2568 37.9208 51.915 37.9208 51.5439V51.3389C37.9208 50.9092 37.9843 50.5267 38.1112 50.1914C38.2382 49.8529 38.4107 49.5664 38.6288 49.332C38.8469 49.0977 39.0943 48.9202 39.371 48.7998C39.6477 48.6794 39.9342 48.6191 40.2304 48.6191C40.608 48.6191 40.9335 48.6842 41.207 48.8145C41.4836 48.9447 41.7099 49.127 41.8857 49.3613C42.0614 49.5924 42.1917 49.8659 42.2763 50.1816C42.3609 50.4941 42.4032 50.8359 42.4032 51.207V51.6123H38.4579V50.875H41.4999V50.8066C41.4869 50.5723 41.4381 50.3444 41.3534 50.123C41.2721 49.9017 41.1418 49.7194 40.9628 49.5762C40.7838 49.4329 40.5396 49.3613 40.2304 49.3613C40.0253 49.3613 39.8365 49.4053 39.664 49.4932C39.4915 49.5778 39.3433 49.7048 39.2196 49.874C39.096 50.0433 38.9999 50.25 38.9316 50.4941C38.8632 50.7383 38.829 51.0199 38.829 51.3389V51.5439C38.829 51.7946 38.8632 52.0306 38.9316 52.252C39.0032 52.4701 39.1057 52.6621 39.2392 52.8281C39.3759 52.9941 39.5403 53.1243 39.7323 53.2188C39.9277 53.3132 40.149 53.3604 40.3964 53.3604C40.7154 53.3604 40.9856 53.2952 41.207 53.165C41.4283 53.0348 41.622 52.8607 41.788 52.6426L42.3349 53.0771C42.221 53.2497 42.0761 53.4141 41.9003 53.5703C41.7245 53.7266 41.5081 53.8535 41.2509 53.9512C40.997 54.0488 40.6959 54.0977 40.3476 54.0977Z" fill="white"/>
</svg>
