<svg width="32" height="32" viewBox="0 0 32 32" fill="none" xmlns="http://www.w3.org/2000/svg">
<path fill-rule="evenodd" clip-rule="evenodd" d="M11.3333 7.33333C10.5969 7.33333 9.99996 7.93029 9.99996 8.66667V24.6667C9.99996 25.403 10.5969 26 11.3333 26H22C22.7363 26 23.3333 25.403 23.3333 24.6667V8.66667C23.3333 7.93029 22.7363 7.33333 22 7.33333H11.3333ZM8.66663 8.66667C8.66663 7.19391 9.86053 6 11.3333 6H22C23.4727 6 24.6666 7.19391 24.6666 8.66667V24.6667C24.6666 26.1394 23.4727 27.3333 22 27.3333H11.3333C9.86053 27.3333 8.66663 26.1394 8.66663 24.6667V8.66667Z" fill="white"/>
<path fill-rule="evenodd" clip-rule="evenodd" d="M19.8048 10.8619C20.0651 11.1223 20.0651 11.5444 19.8048 11.8047L14.4714 17.1381C14.2111 17.3984 13.789 17.3984 13.5286 17.1381C13.2683 16.8777 13.2683 16.4556 13.5286 16.1953L18.862 10.8619C19.1223 10.6016 19.5444 10.6016 19.8048 10.8619Z" fill="white"/>
<path fill-rule="evenodd" clip-rule="evenodd" d="M13.3334 12C13.3334 11.2636 13.9303 10.6667 14.6667 10.6667C15.4031 10.6667 16 11.2636 16 12C16 12.7364 15.4031 13.3333 14.6667 13.3333C13.9303 13.3333 13.3334 12.7364 13.3334 12Z" fill="white"/>
<path fill-rule="evenodd" clip-rule="evenodd" d="M17.3334 16C17.3334 15.2636 17.9303 14.6667 18.6667 14.6667C19.4031 14.6667 20 15.2636 20 16C20 16.7364 19.4031 17.3333 18.6667 17.3333C17.9303 17.3333 17.3334 16.7364 17.3334 16Z" fill="white"/>
<path fill-rule="evenodd" clip-rule="evenodd" d="M12 20.6667C12 20.2985 12.2985 20 12.6667 20H20.6667C21.0349 20 21.3333 20.2985 21.3333 20.6667C21.3333 21.0349 21.0349 21.3333 20.6667 21.3333H12.6667C12.2985 21.3333 12 21.0349 12 20.6667Z" fill="white"/>
<path fill-rule="evenodd" clip-rule="evenodd" d="M12 23.3333C12 22.9651 12.2985 22.6667 12.6667 22.6667H20.6667C21.0349 22.6667 21.3333 22.9651 21.3333 23.3333C21.3333 23.7015 21.0349 24 20.6667 24H12.6667C12.2985 24 12 23.7015 12 23.3333Z" fill="white"/>
</svg>
